<svg xmlns="http://www.w3.org/2000/svg" viewBox="0 0 341 512">
<defs><linearGradient id="skin" x1="0" y1="0" x2="0" y2="1"><stop stop-color="#f0bb94"/><stop offset="1" stop-color="#dfa073"/></linearGradient><linearGradient id="shirt" x1="0" y1="0" x2="0" y2="1"><stop stop-color="#69ad68"/><stop offset="1" stop-color="#315b91"/></linearGradient></defs>
<!-- hair mass --> <g fill="#3f3450" stroke="#35241f" stroke-width="7" stroke-linejoin="round"><path d="M80 177 Q79 104 122 70 Q169 38 222 70 Q264 99 260 179 L247 250 L95 250Z"/></g>
<!-- ears --> <circle cx="88" cy="188" r="23" fill="url(#skin)" stroke="#5a392b" stroke-width="6"/><circle cx="253" cy="188" r="23" fill="url(#skin)" stroke="#5a392b" stroke-width="6"/>
<!-- face --> <path d="M100 125 Q170 84 241 125 L243 210 Q238 267 170 283 Q102 267 98 210Z" fill="url(#skin)" stroke="#5a392b" stroke-width="7"/>
<!-- bangs --> <path d="M99 151 Q106 88 170 86 Q234 88 242 151 Q224 129 206 134 Q190 112 171 137 Q150 111 132 134 Q112 128 99 151Z" fill="#3f3450"/>
<path d="M119 116 Q142 91 163 96" fill="none" stroke="#6c5b86" stroke-width="10" stroke-linecap="round" opacity=".7"/>
<!-- expressive eyes --> <ellipse cx="137" cy="182" rx="17" ry="24" fill="#314d74"/><ellipse cx="203" cy="182" rx="17" ry="24" fill="#314d74"/><circle cx="131" cy="175" r="6.5" fill="white"/><circle cx="197" cy="175" r="6.5" fill="white"/><circle cx="143" cy="192" r="3" fill="white"/><circle cx="209" cy="192" r="3" fill="white"/>
<path d="M117 216 Q130 207 143 215" fill="none" stroke="#d77f7f" stroke-width="4" stroke-linecap="round"/><path d="M197 215 Q210 207 223 216" fill="none" stroke="#d77f7f" stroke-width="4" stroke-linecap="round"/>
<!-- smile --> <path d="M156 223 Q170 240 184 223 Q181 247 170 248 Q159 247 156 223Z" fill="#9a4e57" stroke="#7e4149" stroke-width="3"/>
<!-- neck --> <path d="M151 266 L189 266 L191 294 L149 294Z" fill="url(#skin)" stroke="#5a392b" stroke-width="5"/>
<!-- legs behind body --> <path d="M131 401 L128 468 L153 468 L161 410Z" fill="url(#skin)" stroke="#5a392b" stroke-width="6"/><path d="M180 410 L188 468 L213 468 L209 401Z" fill="url(#skin)" stroke="#5a392b" stroke-width="6"/>
<!-- shorts --> <path d="M117 374 Q170 390 223 374 L217 425 Q170 438 123 425Z" fill="#596279" stroke="#394158" stroke-width="7"/>
<!-- shoes --> <path d="M119 458 Q139 447 157 460 L162 481 Q154 494 113 490 Q103 484 119 458Z" fill="#58382a" stroke="#3b2920" stroke-width="7"/><path d="M184 460 Q202 447 221 458 Q237 484 226 490 Q185 494 179 481Z" fill="#58382a" stroke="#3b2920" stroke-width="7"/>
<!-- arms --> <path d="M112 286 Q91 298 91 347 L103 375 Q111 382 120 373 L116 329 L130 306Z" fill="url(#skin)" stroke="#5a392b" stroke-width="7"/><path d="M228 286 Q249 298 249 347 L237 375 Q229 382 220 373 L224 329 L210 306Z" fill="url(#skin)" stroke="#5a392b" stroke-width="7"/>
<!-- explorer vest/body --> <path d="M128 278 Q170 292 212 278 L225 379 Q170 396 116 379Z" fill="url(#shirt)" stroke="#34455f" stroke-width="7"/>
<path d="M149 282 L170 303 L191 282" fill="none" stroke="#fff4dc" stroke-width="7" stroke-linecap="round"/>
<path d="M116 365 Q170 378 225 365 L225 384 Q170 398 116 384Z" fill="#68462d"/><rect x="158" y="369" width="24" height="21" rx="5" fill="#f2cb5a" stroke="#6c4a26" stroke-width="4"/>
<!-- pockets --> <path d="M130 326 h31 v30 h-31Z M180 326 h31 v30 h-31Z" fill="none" stroke="#e9c88c" stroke-width="4"/><circle cx="145" cy="340" r="3" fill="#f1d77e"/><circle cx="196" cy="340" r="3" fill="#f1d77e"/>
<!-- hands --> <circle cx="103" cy="354" r="13" fill="url(#skin)" stroke="#5a392b" stroke-width="5"/><circle cx="237" cy="354" r="13" fill="url(#skin)" stroke="#5a392b" stroke-width="5"/>
</svg>