<svg xmlns="http://www.w3.org/2000/svg" width="512" height="512" viewBox="0 0 512 512"><defs><linearGradient id="b" x2="0" y2="1"><stop stop-color="#073963"/><stop offset="1" stop-color="#078fb4"/></linearGradient><linearGradient id="g" x2="0" y2="1"><stop stop-color="#a6e978"/><stop offset="1" stop-color="#207650"/></linearGradient></defs><rect width="512" height="512" fill="url(#b)"/><circle cx="256" cy="240" r="180" fill="#def7ff"/><circle cx="345" cy="153" r="37" fill="#ffd377"/><path d="M77 281Q170 248 256 281T435 281V347Q256 440 77 347Z" fill="#40c5df"/><path d="M103 301L169 173 205 237 234 210 289 306Z" fill="url(#g)"/><path d="M243 313L305 211 344 262 364 237 408 315Z" fill="#32966c"/><path d="M169 173L145 219 170 207 187 218Z" fill="#efffe0"/><path d="M114 337Q155 355 196 337M244 351Q284 369 324 351M339 329Q365 343 392 329" fill="none" stroke="white" stroke-width="9" stroke-linecap="round"/><path d="M266 171V269" stroke="#805c35" stroke-width="8"/><path d="M270 173Q297 157 325 177L320 215Q293 195 270 209Z" fill="#fff"/><circle cx="296" cy="188" r="11" fill="#ee5961"/><path d="M285 188Q296 199 307 188A11 11 0 0 1 285 188" fill="#2876b4"/><path d="M113 141Q129 122 143 141Q156 123 171 138M324 113Q336 101 350 112" fill="none" stroke="#fff" stroke-width="7" stroke-linecap="round"/><rect x="104" y="374" width="304" height="65" rx="30" fill="#073963" stroke="#ffd377" stroke-width="4"/><text x="256" y="418" text-anchor="middle" fill="#fff" font-size="29" font-weight="bold" font-family="sans-serif">SJ EXPEDITION</text></svg>