<svg xmlns="http://www.w3.org/2000/svg" viewBox="0 0 360 520"><path d="M124 246 Q180 220 236 246 L229 355 Q180 376 131 355Z" fill="#315f43" stroke="#173f2c" stroke-width="6"/><path d="M124 255 Q99 275 95 335" stroke="#315f43" stroke-width="32" stroke-linecap="round"/><path d="M236 255 Q261 275 265 335" stroke="#315f43" stroke-width="32" stroke-linecap="round"/><path d="M180 235 L157 270 L180 286 L203 270Z" fill="#e4b84b"/><path d="M180 286 L180 352" stroke="#e4b84b" stroke-width="6"/><rect x="142" y="298" width="30" height="31" rx="4" fill="#234b36"/><rect x="188" y="298" width="30" height="31" rx="4" fill="#234b36"/><path d="M128 349 L232 349 L222 442 L188 442 L180 365 L172 442 L138 442Z" fill="#55442f" stroke="#2f281e" stroke-width="5"/><circle cx="216" cy="274" r="12" fill="#f5f3dd" stroke="#173f2c" stroke-width="3"/><text x="216" y="278" font-size="10" text-anchor="middle" font-family="sans-serif" font-weight="bold" fill="#173f2c">SJ</text></svg>