<svg xmlns="http://www.w3.org/2000/svg" viewBox="0 0 341 512"><defs>
<linearGradient id="skin" x1="0" y1="0" x2="0" y2="1"><stop stop-color="#ffd9bb"/><stop offset="1" stop-color="#e9ad86"/></linearGradient>
<linearGradient id="shirt" x1="0" y1="0" x2="1" y2="1"><stop stop-color="#f7fbff"/><stop offset="1" stop-color="#dbe8f3"/></linearGradient></defs>
<ellipse cx="170" cy="486" rx="78" ry="13" fill="#2c6b86" opacity=".28"/>
<path d="M126 370 L123 442 Q122 455 111 464 L101 473 Q98 481 109 485 L145 485 Q154 482 151 469 L155 405Z" fill="#f4c7a6" stroke="#4a342b" stroke-width="6"/>
<path d="M188 370 L187 442 Q188 455 199 464 L209 473 Q212 481 201 485 L166 485 Q157 482 160 469 L157 405Z" fill="#f4c7a6" stroke="#4a342b" stroke-width="6"/>
<path d="M101 468 Q125 455 150 468 L156 486 Q151 497 108 496 Q96 491 101 468Z" fill="#4a3027" stroke="#30251f" stroke-width="6"/>
<path d="M161 468 Q187 455 212 468 L218 486 Q213 497 171 496 Q158 491 161 468Z" fill="#4a3027" stroke="#30251f" stroke-width="6"/>
<path d="M108 477 H147 M172 477 H211" stroke="#d4a35e" stroke-width="4" stroke-linecap="round"/>
<path d="M112 225 Q170 207 229 225 L235 342 Q219 373 170 378 Q122 373 106 342Z" fill="#ffeaf2" stroke="#30445c" stroke-width="7"/>
<path d="M141 225 L170 253 L199 225" fill="none" stroke="#7d93aa" stroke-width="6"/>
<path d="M170 254 L170 330" stroke="#d5e1ea" stroke-width="5"/>
<path d="M112 238 Q91 253 82 302 Q81 319 96 323 Q108 323 112 307 L127 267Z" fill="url(#skin)" stroke="#4a342b" stroke-width="6"/>
<path d="M229 238 Q250 253 259 302 Q260 319 245 323 Q233 323 229 307 L214 267Z" fill="url(#skin)" stroke="#4a342b" stroke-width="6"/>
<circle cx="94" cy="312" r="12" fill="#f4c7a6" stroke="#4a342b" stroke-width="5"/><circle cx="247" cy="312" r="12" fill="#f4c7a6" stroke="#4a342b" stroke-width="5"/>
<path d="M151 201 L189 201 L191 232 L149 232Z" fill="#f4c7a6" stroke="#4a342b" stroke-width="5"/>
<path d="M88 150 Q55 173 70 226 Q78 244 97 218Z" fill="#4c342c" stroke="#3b2a24" stroke-width="6"/><path d="M252 150 Q286 173 271 226 Q263 244 244 218Z" fill="#4c342c" stroke="#3b2a24" stroke-width="6"/>
<ellipse cx="170" cy="145" rx="84" ry="88" fill="#f4c7a6" stroke="#4a342b" stroke-width="7"/>
<path d="M88 143 Q94 67 170 60 Q247 67 252 143 Q230 116 204 108 Q170 98 137 109 Q109 117 88 143Z" fill="#4c342c" stroke="#382923" stroke-width="7"/>
<path d="M98 127 Q111 91 143 91 Q166 103 170 125 Q184 103 207 92 Q234 103 243 130 Q215 119 196 134 Q178 142 164 122 Q148 144 128 135 Q111 129 98 127Z" fill="#6c4a3c"/>
<circle cx="85" cy="154" r="14" fill="#f4c7a6" stroke="#4a342b" stroke-width="5"/><circle cx="255" cy="154" r="14" fill="#f4c7a6" stroke="#4a342b" stroke-width="5"/>
<ellipse cx="139" cy="157" rx="14" ry="18" fill="#263a5e"/><ellipse cx="201" cy="157" rx="14" ry="18" fill="#263a5e"/>
<circle cx="134" cy="151" r="5" fill="#fff"/><circle cx="196" cy="151" r="5" fill="#fff"/>
<circle cx="144" cy="164" r="2.5" fill="#fff" opacity=".65"/><circle cx="206" cy="164" r="2.5" fill="#fff" opacity=".65"/>
<ellipse cx="116" cy="188" rx="16" ry="7" fill="#f18e8e" opacity=".48"/><ellipse cx="224" cy="188" rx="16" ry="7" fill="#f18e8e" opacity=".48"/>
<path d="M157 187 Q170 198 183 187" fill="none" stroke="#713c3b" stroke-width="5" stroke-linecap="round"/>
<rect x="108" y="327" width="124" height="17" rx="8" fill="#684a35" stroke="#4a342b" stroke-width="3"/>
<rect x="159" y="326" width="22" height="21" rx="5" fill="#f1c45e" stroke="#6b4a2d" stroke-width="3"/>
<path d="M84 300 L101 303 M239 303 L256 300" stroke="#ef78ae" stroke-width="6" stroke-linecap="round"/>
</svg>